<svg width="396" height="396" viewBox="0 0 396 396" fill="none" xmlns="http://www.w3.org/2000/svg">
<rect width="396" height="396" fill="white"/>
<path d="M102 325.307V70.6937H191.564C209.295 70.6937 225.33 72.6492 239.671 76.5603C254.012 80.2107 265.354 86.5988 273.698 95.7248C282.302 104.851 286.604 117.627 286.604 134.054C286.604 146.569 283.736 157.911 278 168.08C272.264 177.988 264.181 184.898 253.751 188.809V190.374C267.831 193.763 278.782 200.021 286.604 209.147C294.687 218.273 298.729 231.049 298.729 247.476C298.729 265.467 294.166 280.199 285.04 291.671C276.175 303.144 264.181 311.618 249.058 317.094C234.196 322.569 217.508 325.307 198.996 325.307H102ZM164.578 171.6H189.609C201.864 171.6 210.859 169.123 216.596 164.169C222.593 158.954 225.591 152.045 225.591 143.44C225.591 134.575 222.593 128.317 216.596 124.667C210.859 120.756 201.864 118.8 189.609 118.8H164.578V171.6ZM164.578 277.2H194.302C208.904 277.2 219.724 274.593 226.764 269.378C234.065 264.163 237.716 256.341 237.716 245.911C237.716 235.742 234.065 228.442 226.764 224.009C219.724 219.577 208.904 217.36 194.302 217.36H164.578V277.2Z" fill="black"/>
</svg>
